2.2Hzlow_3min_grf.mot
version=1
nRows=15
nColumns 19
inDegrees=yes
endheader
time	1_ground_force_vx	1_ground_force_vy	1_ground_force_vz	1_ground_force_px	1_ground_force_py	1_ground_force_pz	1_ground_torque_x	1_ground_torque_y	1_ground_torque_z	2_ground_force_vx	2_ground_force_vy	2_ground_force_vz	2_ground_force_px	2_ground_force_py	2_ground_force_pz	2_ground_torque_x	2_ground_torque_y	2_ground_torque_z
            1.250000	            7.753723	           24.318882	            4.395578	           -0.217768	            0.006326	           -0.428635	           -0.127274	           -0.399184	           -0.072152	           -5.740586	           -2.701816	           28.854035	           -0.232311	            0.006130	           -0.833667	            1.321803	           -7.167632	           -0.667058
            1.250500	            9.956251	           24.856368	            5.263697	           -0.195949	            0.006319	           -0.426225	            0.141149	            0.352387	            0.074623	           -6.024344	           -1.966237	           28.856783	           -0.232311	            0.006130	           -0.833667	            1.396791	           -7.129415	           -0.704655
            1.251000	            9.403359	           30.087112	            4.553784	           -0.151324	            0.006443	           -0.453221	            0.383530	            1.227149	            0.185733	           -5.927218	           -2.887477	           29.088098	           -0.232311	            0.006130	           -0.833667	            1.340402	           -7.129350	           -0.780032
            1.251500	            5.955425	           38.392825	            1.296248	           -0.160755	            0.006416	           -0.447280	            0.085800	            0.553128	            0.018675	           -5.648798	           -2.149702	           29.043679	           -0.232311	            0.006130	           -0.833667	            1.396801	           -7.138667	           -0.761240
            1.252000	            1.455073	           45.253259	           -1.277016	           -0.185968	            0.006369	           -0.437405	           -0.017129	           -0.532717	            0.015033	           -5.649463	           -1.965553	           29.044336	           -0.232311	            0.006130	           -0.833667	            1.284087	           -7.129890	           -0.685757
            1.252500	           -0.660565	           59.140779	           -2.954789	           -0.186477	            0.006373	           -0.438217	            0.014048	           -1.257760	            0.062840	           -5.602736	           -1.964380	           28.762747	           -0.232311	            0.006130	           -0.833667	            1.096198	           -7.102748	           -0.534775
            1.253000	            1.584825	           69.775119	           -2.502056	           -0.175275	            0.006424	           -0.449676	           -0.026011	           -1.145186	            0.041065	           -5.192262	            1.166660	           29.055307	           -0.232311	            0.006130	           -0.833667	            0.851993	           -7.076145	           -0.289517
            1.253500	            5.717946	           69.943599	            0.423255	           -0.181931	            0.006435	           -0.452564	           -0.014255	           -0.174375	           -0.001055	           -4.055596	           10.746769	           29.042048	           -0.018291	            0.006866	           -0.823401	            0.264536	           -0.700984	           -1.894338
            1.254000	            8.886820	           70.474980	            2.756375	           -0.193889	            0.006372	           -0.438509	            0.110752	            0.878298	            0.034351	           -3.075244	           24.744424	           29.466971	           -0.075189	            0.006527	           -0.785858	            0.276635	           -2.225895	           -2.650714
            1.254500	            8.195719	           74.445410	            1.674545	           -0.185267	            0.006390	           -0.442182	            0.172170	            1.563898	            0.035178	           -2.971441	           35.053388	           30.583052	           -0.114517	            0.006374	           -0.782874	            0.277247	           -3.270613	           -2.853514
            1.255000	            3.509809	           76.443944	           -2.157244	           -0.176971	            0.006454	           -0.456760	            0.054254	            1.181660	           -0.033346	           -3.016091	           34.499100	           31.050382	           -0.117646	            0.006347	           -0.778400	            0.291478	           -3.334032	           -3.000744
            1.255500	           -4.060916	           75.372685	           -4.894463	           -0.189346	            0.006431	           -0.452050	            0.010422	           -0.193442	            0.012561	           -2.266534	           34.502142	           30.956207	           -0.108134	            0.006349	           -0.769484	            0.205104	           -3.122179	           -2.801299
            1.256000	           -9.886474	           76.458856	           -6.205197	           -0.200502	            0.006353	           -0.434325	            0.156000	           -1.206455	            0.097913	           -2.348006	           44.078187	           30.849610	           -0.110412	            0.006318	           -0.762897	            0.172668	           -3.241422	           -2.268619
            1.256500	          -10.707837	           74.289610	           -4.836748	           -0.186983	            0.006392	           -0.442841	            0.230493	           -1.599131	            0.104114	           -4.986272	           61.192335	           31.568806	           -0.128816	            0.006253	           -0.763441	            0.301580	           -3.701040	           -1.909347
            1.257000	           -7.493017	           71.757271	           -2.700306	           -0.175585	            0.006430	           -0.451228	            0.087315	           -0.836178	            0.031466	           -9.157840	           74.979870	           34.060100	           -0.145844	            0.006179	           -0.760015	            0.477757	           -3.911635	           -1.776886
